<?xml version="1.0" encoding="utf-8"?>
<!-- Generator: Adobe Illustrator 28.0.0, SVG Export Plug-In . SVG Version: 6.00 Build 0)  -->
<svg version="1.1" id="Calque_1" xmlns="http://www.w3.org/2000/svg" xmlns:xlink="http://www.w3.org/1999/xlink" x="0px" y="0px"
	 viewBox="0 0 383.8 192.3" style="enable-background:new 0 0 383.8 192.3;" xml:space="preserve">
<style type="text/css">
	.st0{fill:#1D1D1B;}
</style>
<g>
	<path class="st0" d="M69.6,128.5h0.5l13.2,30.3h-4.9l-1.7-4.2H63l-1.7,4.2h-4.5L69.6,128.5z M75,150.7l-3.8-9.4
		c-0.8-1.8-1.5-4.5-1.5-4.5s-0.7,2.7-1.5,4.5l-3.8,9.4H75z"/>
	<path class="st0" d="M88.1,128.8h5l6.8,16.1c0.9,2,1.8,5.3,1.8,5.3s0.8-3.3,1.8-5.3l6.7-16.1h4.5l-12.8,30.3h-0.6L88.1,128.8z"/>
	<path class="st0" d="M125,128.8h4.6v30H125V128.8z"/>
	<path class="st0" d="M154.5,128.5h0.5l13.2,30.3h-4.9l-1.7-4.2h-13.7l-1.7,4.2h-4.5L154.5,128.5z M160,150.7l-3.8-9.4
		c-0.8-1.8-1.5-4.5-1.5-4.5s-0.7,2.7-1.5,4.5l-3.8,9.4H160z"/>
	<path class="st0" d="M181.4,132.9h-8.9v-4.1h22.5v4.1H186v25.9h-4.6V132.9z"/>
	<path class="st0" d="M206.1,128.8h19.1v4.1h-14.4v11.7h12.8v4h-12.8v6.1h15v4.1h-19.7V128.8z"/>
	<path class="st0" d="M237,148.3v-19.5h4.7V148c0,4.9,2.4,7,6.8,7c4.4,0,6.8-2.2,6.8-7v-19.2h4.6v19.5c0,7.3-4.9,10.9-11.4,10.9
		C241.9,159.3,237,155.6,237,148.3z"/>
	<path class="st0" d="M294.8,158.9h-5.4L284,151c-0.8,0.1-1.7,0.2-2.5,0.2h-2.8v7.7H274v-30h7.5c8.3,0,12.9,4.3,12.9,11.2
		c0,4.6-2.1,7.8-6,9.5L294.8,158.9z M281.3,147.1c6,0,8.3-2.6,8.3-7.1c0-4.5-2.5-7.1-8.3-7.1h-2.6v14.2H281.3z"/>
	<path class="st0" d="M303.3,153l3.8-2.1c1.4,2.3,3.2,4.2,6.9,4.2c3,0,5.2-1.6,5.2-4.1c0-2.6-1.8-3.8-5-5.2l-2-0.9
		c-4.4-1.9-7-4.2-7-8.8c0-4.5,3.4-7.6,8.4-7.6c4,0,6.7,1.5,8.5,4.7l-3.7,2.3c-1.1-2-2.5-2.9-4.8-2.9c-2.4,0-3.9,1.5-3.9,3.5
		c0,2.3,1.3,3.3,4.3,4.6l1.9,0.9c5.1,2.3,7.9,4.6,7.9,9.4c0,5.3-4.1,8.3-9.8,8.3C308.4,159.3,304.9,156.4,303.3,153z"/>
</g>
<g>
	<path class="st0" d="M167.6,98.5h3.3v13.8h7.6v2.9h-10.9V98.5z"/>
	<path class="st0" d="M184,98.5h11.2v2.9h-7.9v5.1h6.7v2.8h-6.7v3h8.2v2.9H184V98.5z"/>
	<path class="st0" d="M200.5,111.7l2.7-1.5c0.7,1.4,1.9,2.4,3.8,2.4c1.5,0,2.7-0.7,2.7-1.9c0-1.2-0.8-1.7-2.7-2.5l-1-0.5
		c-2.5-1-4.2-2.3-4.2-5c0-2.7,2.1-4.5,5.1-4.5c2.2,0,3.8,0.7,5.1,2.6l-2.4,1.7c-0.7-1-1.5-1.5-2.6-1.5c-1.2,0-2,0.6-2,1.7
		c0,1.1,0.7,1.6,2.1,2.2l1,0.5c2.9,1.2,4.9,2.5,4.9,5.4c0,3-2.3,4.8-5.9,4.8C203.8,115.5,201.5,113.8,200.5,111.7z"/>
</g>
<g>
	<path class="st0" d="M101.3,173.6h2c2.2,0,3.4,1.2,3.4,3c0,1.8-1.2,3-3.4,3h-0.8v1.9h-1.2V173.6z M103.3,178.5
		c1.6,0,2.2-0.7,2.2-1.9c0-1.2-0.6-1.9-2.2-1.9h-0.7v3.8H103.3z"/>
	<path class="st0" d="M112.7,173.5h0.1l3.5,8H115l-0.5-1.1h-3.6l-0.5,1.1h-1.2L112.7,173.5z M114.1,179.3l-1-2.5
		c-0.2-0.5-0.4-1.2-0.4-1.2s-0.2,0.7-0.4,1.2l-1,2.5H114.1z"/>
	<path class="st0" d="M125.6,181.5h-1.4l-1.4-2.1c-0.2,0-0.4,0-0.7,0h-0.7v2h-1.2v-7.9h2c2.2,0,3.4,1.1,3.4,2.9
		c0,1.2-0.5,2.1-1.6,2.5L125.6,181.5z M122,178.4c1.6,0,2.2-0.7,2.2-1.9c0-1.2-0.6-1.9-2.2-1.9h-0.7v3.7H122z"/>
	<path class="st0" d="M134.6,173.6h2c2.2,0,3.4,1.2,3.4,3c0,1.8-1.2,3-3.4,3h-0.8v1.9h-1.2V173.6z M136.6,178.5
		c1.6,0,2.2-0.7,2.2-1.9c0-1.2-0.6-1.9-2.2-1.9h-0.7v3.8H136.6z"/>
	<path class="st0" d="M144,173.6h1.2v4.2h3.8v-4.2h1.2v7.9h-1.2v-2.5h-3.8v2.5H144V173.6z"/>
	<path class="st0" d="M154.8,173.6h1.2v7.9h-1.2V173.6z"/>
	<path class="st0" d="M160.5,173.6h1.2v6.8h3.6v1.1h-4.9V173.6z"/>
	<path class="st0" d="M169.4,173.6h1.2v7.9h-1.2V173.6z"/>
	<path class="st0" d="M175.1,173.6h2c2.2,0,3.4,1.2,3.4,3c0,1.8-1.2,3-3.4,3h-0.8v1.9h-1.2V173.6z M177,178.5c1.6,0,2.2-0.7,2.2-1.9
		c0-1.2-0.6-1.9-2.2-1.9h-0.7v3.8H177z"/>
	<path class="st0" d="M184.5,173.6h2c2.2,0,3.4,1.2,3.4,3c0,1.8-1.2,3-3.4,3h-0.8v1.9h-1.2V173.6z M186.4,178.5
		c1.6,0,2.2-0.7,2.2-1.9c0-1.2-0.6-1.9-2.2-1.9h-0.7v3.8H186.4z"/>
	<path class="st0" d="M193.9,173.6h5v1.1h-3.8v3.1h3.3v1.1h-3.3v1.6h3.9v1.1h-5.2V173.6z"/>
	<path class="st0" d="M207.8,177.5c0-2.4,1.8-4,4-4c1.4,0,2.5,0.5,3.2,1.6l-0.9,0.7c-0.4-0.7-1.2-1.1-2.2-1.1
		c-1.6,0-2.8,1.3-2.8,2.9c0,1.7,1.2,2.9,2.8,2.9c1.1,0,1.8-0.5,2.3-1.2l0.9,0.7c-0.7,1-1.8,1.7-3.3,1.7
		C209.6,181.6,207.8,179.9,207.8,177.5z"/>
	<path class="st0" d="M219.1,173.6h1.2v4.2h3.8v-4.2h1.2v7.9h-1.2v-2.5h-3.8v2.5h-1.2V173.6z"/>
	<path class="st0" d="M229.8,173.6h5v1.1H231v3.1h3.3v1.1H231v1.6h3.9v1.1h-5.2V173.6z"/>
	<path class="st0" d="M238.4,173.6h1.3l1.8,4.2c0.2,0.5,0.5,1.4,0.5,1.4s0.2-0.9,0.5-1.4l1.7-4.2h1.2l-3.4,8h-0.2L238.4,173.6z"/>
	<path class="st0" d="M254.6,181.5h-1.4l-1.4-2.1c-0.2,0-0.4,0-0.7,0h-0.7v2h-1.2v-7.9h2c2.2,0,3.4,1.1,3.4,2.9
		c0,1.2-0.5,2.1-1.6,2.5L254.6,181.5z M251.1,178.4c1.6,0,2.2-0.7,2.2-1.9c0-1.2-0.6-1.9-2.2-1.9h-0.7v3.7H251.1z"/>
	<path class="st0" d="M258.8,173.6h1.2v7.9h-1.2V173.6z"/>
	<path class="st0" d="M264.5,173.6h5v1.1h-3.8v3.1h3.3v1.1h-3.3v1.6h3.9v1.1h-5.2V173.6z"/>
	<path class="st0" d="M279.3,181.5h-1.4l-1.4-2.1c-0.2,0-0.4,0-0.7,0H275v2h-1.2v-7.9h2c2.2,0,3.4,1.1,3.4,2.9
		c0,1.2-0.5,2.1-1.6,2.5L279.3,181.5z M275.7,178.4c1.6,0,2.2-0.7,2.2-1.9c0-1.2-0.6-1.9-2.2-1.9H275v3.7H275.7z"/>
</g>
<path class="st0" d="M212.3,74.3c-4.9-1.4-10.7-5-15.7-10.1c1.5-1.6,2.5-3.7,2.5-6.1c0-1.8-0.6-3.5-1.5-4.9
	c10.6-7.2,21.9-16.4,31.9-30c0.3-0.5,0.3-1.1-0.1-1.5l-1.9-1.9c-0.4-0.4-1-0.5-1.5-0.2c-7.7,4.9-14.1,10.8-19.5,16.6
	c-1.4,4.9-5,10.7-10.1,15.7c-1.6-1.5-3.7-2.5-6.1-2.5c-1.8,0-3.5,0.6-4.9,1.5c-7.2-10.6-16.4-21.9-30-31.9c-0.5-0.3-1.1-0.3-1.5,0.1
	l-1.9,1.9c-0.4,0.4-0.5,1-0.2,1.5c4.9,7.7,10.8,14.1,16.6,19.5c4.9,1.4,10.7,5,15.7,10.1c-1.5,1.6-2.5,3.7-2.5,6.1
	c0,1.8,0.6,3.5,1.5,4.9c-10.6,7.2-21.9,16.4-31.9,30c-0.3,0.5-0.3,1.1,0.1,1.5l1.9,1.9c0.4,0.4,1,0.5,1.5,0.2
	c7.7-4.9,14.1-10.8,19.5-16.6c1.4-4.9,5-10.7,10.1-15.7c1.6,1.5,3.7,2.5,6.1,2.5c1.8,0,3.5-0.6,4.9-1.5c7.2,10.6,16.4,21.9,30,31.9
	c0.5,0.3,1.1,0.3,1.5-0.1l1.9-1.9c0.4-0.4,0.5-1,0.2-1.5C224,86.1,218.1,79.7,212.3,74.3z M206,42c0.9-1.8,2.1-4.2,3.1-6.5
	c4.7-4.8,9.9-9.4,15.3-13.1c0.1-0.1,0.2-0.1,0.3,0l0.4,0.7c0.1,0.2,0,0.4-0.1,0.5c-4.8,5.7-14.8,15-18.8,18.7
	C206.1,42.4,205.9,42.2,206,42z M178.9,44.4c-0.1,0-0.2-0.1-0.2-0.1l-1.4-0.6c-0.1,0-0.2-0.1-0.3-0.2c-5.8-6.5-13.9-15.1-21.4-19.7
	c-0.2-0.1-0.3-0.3-0.4-0.5c-0.3-0.9-0.5-1.5-0.7-2.4c0-0.2,0.2-0.4,0.4-0.2c9.6,6.6,17.7,15.8,24.1,23.4c0,0,0,0.1,0,0.1
	C179.1,44.3,179.1,44.4,178.9,44.4z M176.5,69.7l-0.6,1.4c0,0.1-0.1,0.2-0.2,0.3c-6.5,5.8-15.1,13.9-19.7,21.3
	c-0.1,0.2-0.3,0.3-0.5,0.4c-0.9,0.3-1.5,0.5-2.4,0.7c-0.2,0-0.4-0.2-0.2-0.4c6.6-9.6,15.8-17.7,23.4-24.1c0,0,0.1,0,0.1,0
	c0.1,0,0.2,0.1,0.2,0.2C176.6,69.5,176.5,69.6,176.5,69.7z M188.7,57.7l-4.9-1.3c-0.2-0.1-0.3-0.3-0.3-0.5c0.7-2.3,2.6-4.1,5-4.7
	c0.2,0,0.3,0.1,0.4,0.2l1,5C189.4,56.6,188.9,57.1,188.7,57.7z M226,92.5l-0.7,0.4c-0.2,0.1-0.4,0-0.5-0.1
	c-5.7-4.8-15-14.8-18.7-18.8c-0.1-0.1,0-0.4,0.2-0.3c1.8,0.9,4.2,2.1,6.5,3.1c4.7,4.7,9.4,10,13.1,15.3
	C226.1,92.3,226.1,92.4,226,92.5z"/>
<path class="st0" d="M356.8,49.2c-0.2-0.3-0.4-0.6-0.6-1c-0.2-0.3-0.5-0.4-0.8-0.4c-40.2,2.6-101.8,6.5-141.3,7.8
	c-0.3,0-0.6,0.1-0.8,0.3c-0.6,0.6-1.2,1.2-1.8,1.7c-0.5,0.5-0.5,1.4,0,1.9c2.3,2,4.7,3.3,8.5,4.8c0.5,0.2,0.9,0.2,1.4,0.2
	c32.9-1.9,100.6-10.3,134.9-14.6C356.7,49.9,356.9,49.5,356.8,49.2z M297.4,54.3c-15.1,1.9-47,4.7-67.2,6.5
	c-0.8,0.1-1.6-0.1-2.4-0.3c-2.5-0.8-4.7-1.3-6.8-2.2c-0.4-0.2-0.3-0.8,0.2-0.8c27.1-1.4,75.1-4.1,75.7-4.2c0.4,0,0.9,0.2,0.9,0.5
	C297.8,54.1,297.6,54.2,297.4,54.3z"/>
<path class="st0" d="M24.2,49.9c34.3,4.4,102,12.7,134.9,14.6c0.5,0,1,0,1.4-0.2c3.9-1.4,6.3-2.8,8.5-4.8c0.6-0.5,0.6-1.4,0-1.9
	c-0.6-0.5-1.2-1.1-1.8-1.7c-0.2-0.2-0.5-0.3-0.8-0.3c-39.5-1.3-101.1-5.2-141.3-7.8c-0.3,0-0.7,0.1-0.8,0.4c-0.2,0.3-0.4,0.6-0.6,1
	C23.7,49.5,23.9,49.9,24.2,49.9z M82.9,53.8c0.1-0.3,0.6-0.5,0.9-0.5c0.6,0,48.6,2.7,75.7,4.2c0.5,0,0.6,0.6,0.2,0.8
	c-2.1,0.9-4.2,1.4-6.8,2.2c-0.8,0.3-1.6,0.4-2.4,0.3c-20.2-1.9-52.2-4.6-67.2-6.5C83,54.2,82.8,54.1,82.9,53.8z"/>
<g>
	<path class="st0" d="M192.9,29.8c-0.4-0.3-0.8-0.5-1.3-0.5l-2.6,0c-0.5,0-0.9,0.2-1.3,0.4c-2.1,1.7-3.7,5.4-4.9,9.6
		c0,0.1,0.1,0.2,0.2,0.1c2.2-1.3,4.6-2.2,7.2-2.2c2.6,0,5,0.9,7.2,2.2c0.1,0.1,0.2,0,0.2-0.1C196.6,35.2,195,31.5,192.9,29.8z
		 M189.2,36.2c0,0.1,0,0.1-0.1,0.1c-1.4,0.2-2.8,0.5-4.1,1.1c-0.1,0-0.1,0-0.1-0.1c0.7-2.7,2-5.1,3.4-6.6c0.1-0.1,0.1-0.1,0.2-0.1
		c0.5-0.1,1-0.2,1.6-0.1c0.1,0,0.1,0.1,0.1,0.1C189.4,32,189.1,34.2,189.2,36.2z"/>
</g>
</svg>
