<?xml version="1.0" encoding="utf-8"?>
<!-- Generator: Adobe Illustrator 28.0.0, SVG Export Plug-In . SVG Version: 6.00 Build 0)  -->
<svg version="1.1" id="Calque_1" xmlns="http://www.w3.org/2000/svg" xmlns:xlink="http://www.w3.org/1999/xlink" x="0px" y="0px"
	 viewBox="0 0 698 266" style="enable-background:new 0 0 698 266;" xml:space="preserve">
<style type="text/css">
	.st0{fill:#FFFFFF;stroke:#FFFFFF;stroke-width:0.25;}
	.st1{fill-rule:evenodd;clip-rule:evenodd;fill:#FFFFFF;stroke:#FFFFFF;stroke-miterlimit:10;}
	.st2{fill:#FFFFFF;}
</style>
<g id="Assets">
	<g id="PCALM" transform="translate(0.000000, -1.000000)">
		<path id="Stroke-1" class="st0" d="M124.6,189.1h460.7 M125.8,256h458.7"/>
		<g id="Group-14">
			<g id="Clip-12">
			</g>
			<path id="Fill-13" class="st1" d="M145.3,119.2c-2.1,0-3.7,0-5.8,0c-6.6,0-13.2,0-19.4-2.1c-1.2-0.4-2.9-0.8-3.7-2.9
				c0-0.4-0.4-0.4-0.8-0.4c-1.2,2.1-2.1,4.5-3.3,6.6c0,0,0,0.4-0.4,0.4c-2.1,2.5-3.7,5.4-5,8.3c-0.8,1.7-2.1,2.9-2.9,4.5
				c-1.7,2.5-3.3,5-5,7.4c-1.2,2.5-2.9,4.5-4.1,6.6c-0.8,1.2-1.2,2.5-2.1,3.3c-0.8,1.2-1.2,2.1-2.1,2.9c-1.2,2.5-2.9,4.5-4.1,7
				c-2.1,4.1-4.5,7.9-5.8,12.4c-0.4,0.8-0.4,1.7-0.8,2.9c-0.8,0-1.7,0-2.1-0.4c-1.2-0.4-2.1-1.7-1.7-3.3c0.4-1.7,0.8-3.3,1.7-5
				c5-11.6,12-22.3,18.6-32.6c7.4-11.2,14.5-23.1,20.2-35.5c1.2-2.5,2.5-5,3.7-7.9c0.8-2.1,1.7-4.5,2.5-6.6c0.4-0.8,0.8-1.2,2.1-1.2
				c0.8,0,1.7,0.8,1.7,1.7c0,0.8,0.4,2.1,0.4,2.9c0,0.4,0,0.8,0,1.2c-0.8,2.1-1.7,4.1-2.5,6.2c-0.4,1.2-1.2,2.5-1.7,3.7
				c-0.4,0.8-0.8,2.1-1.7,2.9c-0.8,1.2-1.2,2.5-2.1,3.7c-0.4,0.4-0.8,0.8-0.8,1.2c-0.4,0.4-0.4,0.8-0.4,1.2c0,0.4-0.4,0.8-0.4,1.2
				c-0.8,1.7-0.4,2.9,1.2,3.3c8.7,1.7,17.4,1.2,26,0.8c0.8,0,1.7-0.4,2.5-0.4c0.4,0,0.8-0.4,0.8-0.8c2.1-3.7,3.7-7,5.4-10.7
				c1.2-2.5,2.1-4.5,3.3-6.6c0.8-2.1,1.7-4.1,2.9-6.2c0.8-2.1,2.1-4.5,2.9-6.6c0.8-1.7,1.2-3.3,2.1-5c0.8-2.1,2.1-3.7,2.5-5.8
				c0.4-1.2,0.8-2.5,1.2-3.7c0.8-2.9,1.7-5.4,2.5-8.3c0.4-1.7,0.4-3.3,0.8-5c0-0.8,0.4-1.2,0.4-2.1c0.4-0.8,1.2-1.2,2.1-1.2
				c0.8,0,1.2,0.8,1.2,1.7c0,0.8,0.4,1.7,0.4,2.9c0.4,2.5-0.4,4.5-0.8,6.6c-0.8,3.3-2.1,6.6-2.9,9.5c-1.2,3.7-2.9,7.9-4.5,11.6
				c-1.2,2.9-2.5,5.8-3.7,8.7c-1.7,3.7-3.3,7-5,10.7c-1.2,2.9-2.5,5.4-4.1,8.3c-0.4,0.4-0.4,0.8-0.8,1.7c3.3-0.4,5.8-0.8,8.7-1.7
				c2.9-0.8,5.8-1.2,9.1-2.5c5-1.2,9.5-2.9,14.5-4.5c4.5-1.7,8.7-2.9,12.8-5c3.3-1.2,6.2-3.3,9.5-5c2.9-1.2,5.4-3.3,7.4-5.4
				c2.5-2.1,4.5-4.1,6.6-6.2c1.2-1.2,2.5-2.9,3.3-4.1c0.8-1.2,1.7-2.9,2.9-4.5c2.5-4.5,3.7-9.5,3.7-14.5s-2.5-9.9-5.4-13.6
				c-1.7-2.1-3.7-4.5-6.2-6.2c-3.7-2.5-8.3-4.5-12.4-6.6c-2.9-1.2-6.6-2.1-9.5-2.9c-11.2-3.3-22.7-4.5-34.3-5c-3.3,0-7-0.4-10.3-0.4
				c-6.6,0-12.8,0.8-19.4,1.2c-15.7,0.8-31.8,3.7-47.1,8.3C75,38.2,62.2,43.2,50.6,49.8c-4.5,2.9-9.1,6.2-12.8,10.3
				c-2.1,2.5-4.5,5-6.2,8.3c-2.9,6.2-2.5,13.6,0,19.4c1.2,2.5,2.5,4.5,3.7,7c0.8,1.2,2.5,2.9,2.5,4.5c-4.1,0.4-7-5.8-8.7-9.1
				c-3.7-7-5.4-18.2-0.8-25.6c2.1-3.3,4.1-6.2,6.6-8.7c2.9-2.9,5.8-5.8,9.5-7.9c3.3-2.1,6.6-4.5,10.3-6.2
				c9.1-4.1,18.2-7.9,27.7-10.7c2.5-0.8,4.5-1.7,7-2.1c2.5-0.8,5-1.2,7.4-2.1c12-2.9,24.4-4.5,36.8-5.8c9.5-0.8,19.4-1.2,29.3-0.8
				c11.2,0.4,21.9,2.1,32.6,4.5c2.1,0.4,4.1,0.8,6.2,1.7c2.9,0.8,6.2,2.1,9.1,3.3c9.1,3.7,19,10.3,23.1,19.8
				c2.5,5.4,2.9,11.2,2.1,16.9c-0.4,3.3-1.2,6.6-2.5,9.1c-2.1,4.1-4.5,7.9-7.4,11.2c-1.2,1.7-2.5,2.9-4.1,4.5
				c-2.5,2.5-6.2,5.4-9.1,7c-5.4,3.3-11.2,6.2-16.9,8.3c-0.4,0-1.2,0.4-1.7,0.4c-2.5,0.8-5,2.1-7,2.9s-4.1,1.2-6.2,2.1
				c-2.1,0.4-3.7,1.2-5.8,1.7c-3.3,0.8-6.2,1.7-9.5,2.5c-1.7,0.4-3.7,0.8-5.4,1.2c-2.5,0.4-5,0.8-7.4,1.2c-1.7,0-2.5,0.8-2.9,2.1
				c-1.2,2.5-2.5,5.4-3.7,7.9c-1.2,2.5-2.5,5-3.3,7c-0.4,0.8-0.8,1.7-1.2,2.1c0,0,0,0,0.4,0.4c1.2-0.8,2.5-1.7,3.7-2.5
				c2.1-1.2,3.7-2.5,5.8-3.3c1.2-0.4,2.1-0.4,3.3,0c1.7,3.7,2.1,7.4,0.4,11.6c-1.2,2.9-2.5,5.8-3.7,8.3c-0.4,0.4-0.4,1.2-0.4,1.7
				c0,0.8,0,1.2,0.8,1.7c1.7,0.8,3.3,1.2,5,1.2c1.2,0,2.9-0.4,4.1-0.8c2.5-0.8,5.4-1.7,7.9-2.5c1.7-0.8,3.3-1.2,4.5-2.1
				c0.8-0.4,1.2-0.8,2.1-1.2c0.4,0.4,0.8,0.8,0.8,0.8c0,0.8,0,1.2-0.4,2.1c-0.4,1.7-1.2,2.5-2.5,3.3c-1.7,0.8-2.9,1.7-4.5,2.5
				c-2.9,1.7-5.8,2.5-8.7,2.9c-2.9,0.8-5.8,0.8-8.7-0.4c-2.5-0.8-3.7-2.5-5-5c-1.2-2.5-0.4-5,0.4-7.4c1.2-2.9,2.5-5.8,3.7-8.7
				c0-0.4,0-0.8,0-1.2c-0.8,0.4-2.1,0.8-2.9,1.7c-2.1,1.7-4.1,2.9-6.2,4.5c-2.9,2.5-5.4,5.4-7.4,8.7c-1.2,2.1-1.7,4.1-2.9,6.2
				c-0.4,0.8-0.8,1.7-1.2,2.1c-0.4,0.4-0.8,0.4-1.7,0.4c-2.1-0.8-2.5-1.7-2.5-4.1c0-2.5,1.2-4.5,2.5-6.6c1.7-2.5,2.5-5.4,3.7-7.9
				c1.2-2.9,2.5-5.8,3.7-8.7c1.2-2.9,2.9-6.2,4.5-9.1c0.8-1.7,1.7-3.7,2.9-5.4C144.8,120.1,145.3,119.6,145.3,119.2"/>
		</g>
		<path id="Fill-15" class="st1" d="M440.3,116.7c-0.4,0-0.4,0.8-0.8,0.8c-0.4,0.4-0.4,1.2-0.4,1.7c-0.4,0.4-0.8,0.4-1.2,0.8
			c-0.4,0.4-0.4,1.2-0.8,1.7c-1.2,1.7-2.1,3.3-3.3,4.5c-0.4,0.4-1.2,0.8-1.7,1.2c-0.4,0.8-0.8,1.2-1.2,2.1c-1.7,1.7-2.9,3.7-5,5.4
			c-3.7,3.3-6.6,7-10.7,9.9c-2.1,1.7-4.1,2.9-6.2,4.5c-1.7,1.2-2.9,2.5-4.5,3.7c-2.5,1.7-5.8,2.1-8.7,3.7c-4.1,2.1-8.7,5-13.6,5
			c-10.3,0.8-17.8-8.7-18.6-18.2c-1.2-11.2,2.1-22.3,6.6-32.2c1.2-2.9,2.9-5.8,4.1-8.7c0.8-2.1,2.1-3.7,3.3-5.8
			c5-8.7,10.7-16.5,16.9-24.4c1.7-1.7,2.9-3.7,4.5-5.4c2.1-2.1,4.1-4.5,6.2-6.6c2.5-2.5,4.5-4.5,7-6.6c5-4.5,10.7-8.7,16.5-11.6
			c3.3-1.7,6.6-3.3,10.3-4.1c1.2-0.4,3.3-0.8,4.5,0c1.2,0.8,1.7,3.3,1.7,5c0,1.2-0.4,3.3-1.2,4.1c-1.7,1.2-3.3-0.8-4.1-2.5
			c-2.5,0-4.5,1.2-6.2,2.1c-1.7,0.8-3.3,1.7-5,2.9c-1.7,1.2-2.9,2.1-4.5,3.3c-1.2,0.8-2.5,1.7-3.7,2.9c-2.9,2.1-5.4,4.5-7.9,7
			c-1.2,1.7-2.9,2.9-4.5,4.5c-2.1,2.1-4.1,4.5-6.2,6.6c-5.8,6.2-10.7,13.2-15.7,20.2c-1.7,2.5-3.3,5-5,7.9c-2.5,5-5,9.9-7,14.9
			c-2.1,5.4-3.7,11.2-4.5,16.5c-1.2,6.6-1.7,13.2,3.3,18.6c2.1,2.5,5,3.3,7.9,3.3c2.9,0,5.8-0.4,8.3-1.2c3.3-0.8,6.6-2.5,9.9-4.1
			c2.1-1.2,4.5-2.1,6.6-3.7c2.1-1.2,4.1-2.5,6.2-4.1c2.1-1.7,4.1-2.5,5.8-4.1c1.7-1.7,3.7-2.9,5.8-4.5c1.2-1.2,2.5-2.5,3.7-3.7
			c1.7-1.7,3.3-2.9,5-4.5c0.8-0.8,1.2-1.2,2.1-2.1C435.7,121.7,437.8,119.2,440.3,116.7L440.3,116.7"/>
		<path id="Fill-16" class="st1" d="M478.3,134.1L478.3,134.1c2.5-0.8,5-2.1,7.4-3.3c2.1-1.2,4.1-2.5,4.5-5.4c0,0,0-0.4,0.4-0.4
			c0.8-1.7,0.8-3.3,0.4-5.4c-0.4-1.7-1.2-1.7-2.5-0.8c-2.1,1.2-3.7,2.9-5.4,5c-1.2,1.7-2.1,3.3-2.9,5.4
			C479.5,130.8,478.7,132.5,478.3,134.1z M511.8,119.6c0,0.8,0.4,2.1,0.4,2.9c0,0.8-0.4,1.7-0.8,2.1c-1.2,1.2-2.1,2.9-2.9,5
			c-0.8,2.1-1.2,4.5-1.7,6.6c-0.4,2.1-1.2,4.5-0.8,6.6c0.4,2.5,2.5,5.4,4.5,6.6c1.7,1.2,3.3,1.2,5.4,0.8c2.1-0.4,3.7-1.7,5.4-2.9
			c4.1-3.3,6.2-7.9,7.4-12.8c0.4-2.1,0.4-4.5-0.4-6.6c-0.4-1.7-2.1-2.1-3.3-2.9c-0.4-0.4-1.2,0-1.2-0.8c0,0-0.4,0-0.8,0
			c-0.8,0.4-1.2,1.2-2.5,0.8c-0.8,0-1.2-0.8-2.1-0.8c0.4-0.8,0-1.7,0-2.9c0.4-0.8,1.2-1.2,2.1-1.7c6.2-3.7,12.8,4.5,12.8,9.9
			c0,2.1,0,4.1-0.4,6.2c-1.7,7.9-6.6,17.4-14.9,19.8c-2.1,0.8-5.4,0.8-7.9,0s-4.1-2.5-5.4-4.5c-1.7-2.1-2.1-4.5-2.9-7
			c0-0.4-0.4-0.8-0.4-1.2c-0.4,1.7-1.2,2.9-2.5,3.7c-0.4,0-0.4,0.4-0.8,0.8c-0.4,0.8-0.8,1.7-1.7,2.5c-0.4,0.8-1.2,0.8-2.1,1.2
			c-0.4,0.4-0.4,0.8-0.8,1.2c-1.2,1.2-3.7,1.7-5.4,2.1c-2.5,0.8-4.5,1.2-7,1.2c-2.1,0-4.5-0.4-6.2-1.7c-1.2-0.8-1.7-1.7-2.5-2.9
			c-3.3-5.4-1.2-12,0.8-17.4c2.5-7,5.4-15.3,12.4-19c2.5-1.2,6.6-0.8,8.3,1.7c2.1,3.3,1.2,7.9,0.4,11.6c-0.8,3.7-2.9,6.6-6.2,8.3
			c-3.3,1.7-6.6,3.3-9.9,5c-1.7,0.8-2.5,1.7-2.5,3.7c-0.4,2.5,0.8,3.7,2.5,5c2.1,1.7,4.1,1.2,6.2,0.8c2.9-0.4,6.2-1.7,8.7-2.9
			c2.5-1.2,4.1-2.9,5.8-5c0.4-0.4,0.8-1.2,1.2-1.7c1.2-1.7,1.7-3.7,1.7-5.4c0.4-3.7,1.2-7.9,3.3-11.2c0.8-1.2,1.7-2.5,2.9-3.3
			C509.3,118.8,510.5,118.8,511.8,119.6L511.8,119.6z"/>
		<path id="Fill-17" class="st1" d="M591.5,123.4c0-0.4,0-0.4-0.4-0.4c-2.5-2.5-7.9,2.1-9.5,4.1c-3.3,4.5-6.2,13.6-0.8,17.8
			c1.7,1.2,3.3,2.5,5.8,2.5c4.1,0,8.7-1.2,12.4-2.9c1.7-0.8,3.3-1.7,4.5-3.3c0.8-0.8,1.7-1.7,2.1-2.9c1.2-1.7,0.4-3.3-0.4-4.5
			c-1.2-1.2-2.5-6.2,0.8-5.8c2.1,0.4,3.3-0.8,5-1.7c2.9-1.2,5.8-3.3,8.7-5c9.1-4.5,18.6-8.7,28.5-11.6c2.5-0.8,5-1.2,7.4-1.7
			c7.4-1.7,15.3-1.7,22.7-0.8c1.7,0,3.7,0.4,4.1,2.1c-0.8,0.4-1.7,1.2-2.5,1.7c-4.1,1.7-7.9,0-12.4,0.4c-5,0-12,0.8-16.5,2.1
			c-5.8,1.7-11.2,3.7-16.9,5.8c-7.4,2.5-10.7,5.4-17.8,9.1c-1.7,0.8-5,4.5-6.6,4.5c0,1.2,0,2.1,0,2.9c-0.4,3.3-2.1,6.2-5,8.3
			c-0.4,0.4-1.2,0.8-1.7,1.2c-5.8,4.1-12.8,6.2-20.2,5.8c-2.5,0-4.1-1.2-6.2-2.5c-6.6-5-6.2-14.9-3.3-21.5c1.2-2.9,3.3-5.4,5.8-7.4
			c1.7-1.2,3.3-2.1,5.4-2.9c2.5-0.8,5-0.8,7,0c3.7,1.2,3.7,6.6,2.1,9.5c-1.2,2.1-2.9,2.9-4.5,4.5c-0.8,0.4-1.2,1.2-2.1,1.7
			c-1.7,1.2-5.4,4.5-7.4,2.1c-0.8-1.2-0.8-2.5,0-3.3c0.8-0.8,1.7-1.2,2.9-1.7C585.7,129.1,592.3,125.8,591.5,123.4"/>
		<path id="Fill-18" class="st1" d="M451,124.2c1.7-1.7,2.9-2.9,4.5-4.5c1.7-1.7,3.3-3.3,5.4-4.5c0.8-0.8,1.7-1.2,2.9-1.7
			c7-3.7,4.5,10.7,3.7,13.2c-1.2,4.5-3.7,9.9-2.1,14.9c0.4,1.7,0.4,1.7,0,2.9c-1.7,0.8-2.5,0.4-3.3-1.2c-1.2-2.5-1.7-5-1.2-7.4
			c0-2.9,0.8-5.4,1.7-7.9c0.4-2.5,1.2-5,1.7-7c0-0.4,0-0.4,0-0.8c-0.4,0-0.8,0.4-0.8,0.4c-1.2,1.2-2.5,2.1-3.7,3.3
			c-2.5,2.5-4.5,4.5-6.6,7c-1.2,1.7-2.5,3.3-3.7,5c-1.2,1.2-2.1,2.5-3.3,3.7c-2.9,4.1-6.2,8.3-8.7,12.8c0,0,0,0.4-0.4,0.4
			c-0.8,1.7-1.2,1.7-3.3,1.7c-0.4-1.2-1.7-2.5-1.7-4.1c0-0.8,0.4-2.1,0.4-2.9c0.8-2.5,2.1-5,3.3-7c1.2-2.5,2.5-5,3.7-7
			c1.2-2.5,2.9-4.5,4.5-7c1.7-2.5,2.9-5,4.5-7.4c0.4-0.8,0.8-1.2,1.2-1.7c7-12,14-24,19.8-36.4c0.8-2.1,1.7-4.5,2.9-6.6
			c1.2-2.9,2.5-5.4,3.3-8.3c0.8-2.1,1.7-4.5,2.5-7c0-0.4,0-0.8,0.4-0.8c0.4-1.2,1.7-1.2,2.5-0.4c0.8,1.7,1.2,3.3,0.8,5
			c-0.8,2.5-1.7,5-2.5,7.4c-0.8,2.5-2.1,5.4-3.3,7.9c-2.9,7-6.6,13.6-9.5,20.2c-3.3,7-7.4,13.6-11.2,20.2c-0.8,1.7-1.7,2.9-2.5,4.5
			C451.4,123.4,451,123.8,451,124.2C450.6,124.2,450.6,124.2,451,124.2"/>
		<path id="Fill-19" class="st1" d="M268,125.8c-0.8,0.8-1.7,0.8-2.1,1.7c-2.9,4.1-5.8,8.7-8.3,13.2c-1.2,2.1-2.1,3.7-3.3,5.8
			c-0.8,1.7-2.5,2.9-2.5,5c0,0.4,1.7,0.4,1.7,0.4c1.2,0,2.9,0,4.1-0.8c3.3-2.1,5.8-4.5,7.4-8.3c1.7-2.9,2.9-5.4,2.9-8.7
			c0-2.1,0.4-3.7,0.4-5.8C268.4,127.5,268,127.1,268,125.8z M250.6,153.5c-0.4,0.8-1.2,1.2-1.7,2.1c-1.7,2.9-3.3,6.2-5,9.1
			c-4.5,8.3-8.3,16.9-10.7,26c-0.4,1.2-0.8,2.5-1.2,3.3c0,0,0,0.4-0.4,0.4c-0.4,0.4-0.8,0.4-1.2,0.8c-2.5-1.2-3.3-2.9-2.5-5.8
			c0.4-1.7,0.8-3.7,1.2-5.4c1.7-4.1,2.9-8.3,5.4-12.4c3.3-6.2,6.2-12.4,9.5-19c1.7-2.9,3.3-5.8,4.5-8.7c0,0,0-0.4,0.4-0.4
			c0.8-3.3,2.1-6.6,2.1-10.3c0-2.1-0.4-4.1-0.4-6.2c0-0.4,0-0.4,0-0.8c0-1.2,0.4-1.7,1.7-2.1c1.2,0,2.1,0.4,2.5,1.2
			c0.8,2.5,0.8,5,1.2,7.4c0,0.4,0,0.8,0,1.2c0.4,0,0.4,0,0.4,0c0.8-1.7,1.7-2.9,2.9-4.5c1.2-1.7,2.1-3.3,3.3-5
			c1.2-1.7,2.5-3.3,4.5-4.1c0.8-0.4,1.7-0.4,2.5-0.4c0.4,0,0.8,0,0.8,0.4c1.7,1.2,2.9,3.3,3.3,5.4c0.4,1.2,0.4,2.1,0.8,3.3
			c0,3.7,0,7.4-1.2,11.2c-1.2,3.3-3.3,6.6-5.8,9.5c-0.4,0.4-0.8,0.8-1.2,1.2c-0.8,0.8-2.1,1.7-2.9,2.5l-0.4,0.4
			c-2.1,1.7-4.5,2.5-7.4,2.1C252.3,156,251.9,154.4,250.6,153.5L250.6,153.5z"/>
		<path id="Fill-20" class="st1" d="M278.3,154.4L278.3,154.4c-0.4,0-0.8,0.4-0.8,0.8c-0.8,1.2-1.2,2.5-1.7,4.1
			c-0.4,1.2-1.7,2.5-2.1,4.1c-0.8,2.9-2.1,5.4-3.3,7.9c-1.2,3.7-2.9,7.4-4.1,11.2c-0.4,1.2-1.2,2.5-0.8,4.1
			C271.3,175.8,276.2,165.5,278.3,154.4z M289.5,142.8c1.2-0.8,2.1-0.4,3.3-0.4c2.1,0.4,3.7-0.4,5.4-1.7c2.9-2.5,5.4-5.4,4.5-9.5
			c-0.4-1.7-0.8-3.3-2.5-4.5c-0.8-0.8-3.7-1.7-5-0.8c-4.5,4.5-8.3,9.5-10.7,15.3c-0.8,2.1-2.1,3.3-1.7,5.8
			c1.2,9.9-2.9,19.8-6.6,28.5c-2.5,6.2-5.4,12-8.7,17.4c-0.8,1.2-1.7,2.5-2.1,4.1c-0.4,1.2-1.7,2.1-2.5,1.7h-0.4
			c-0.8-1.2-2.5-2.1-2.5-4.1c0-1.7,0.4-3.7,0.8-5.4c1.2-4.5,2.5-8.7,4.1-12.8c0.8-1.7,1.2-3.3,2.1-5c0.8-2.1,1.7-4.1,2.5-6.2
			c1.2-2.9,2.5-5.8,3.7-8.7c1.2-3.3,2.9-6.6,4.5-9.5c1.2-2.5,2.1-3.7,0.8-6.2c-0.4-0.8-1.2-1.7-1.7-2.5c-0.4-0.8,0-2.1,1.2-2.5
			c2.1-0.4,2.5,1.7,3.7,2.9c0.4-0.4,0.8-0.8,0.8-1.2c1.7-3.3,3.3-6.2,5.4-9.1c1.7-2.5,3.3-4.5,5.8-6.2c2.9-2.1,5.8-1.7,8.7,0
			c4.1,2.9,5.8,7.9,5.4,12.8c-0.4,4.5-3.7,7.9-7,10.3c-1.7,1.2-3.7,1.2-5.8,0.8c-1.7-0.4-2.9-1.2-4.1-2.1
			C289.9,144,289.9,143.2,289.5,142.8L289.5,142.8z"/>
		<path id="Fill-21" class="st1" d="M314.7,141.5c0.8,0,0.8,0,1.2-0.4c0.4,0,0.8,0,0.8-0.4c4.1-1.7,7.9-4.5,10.3-8.3
			c1.2-2.1,2.5-4.1,2.5-6.6c0-1.7-0.8-2.5-2.1-2.1c-1.7,0.4-3.3,1.2-5,2.1c-2.9,1.7-4.5,3.7-6.2,6.6c-1.2,1.7-1.7,3.7-2.1,5.8
			C314.7,139.5,314.7,140.3,314.7,141.5z M319.2,145.3c0.8,0.8,1.7,1.2,2.5,1.2c3.3,0.8,6.6,0.4,9.9-0.4c2.5-0.4,4.5-1.2,7-2.1
			c1.7-0.4,3.3-1.2,4.5-2.1c2.5-1.2,5-2.1,7.9-2.9c0.4,0,0.8,0,1.2,0c0,1.7-0.8,2.9-1.7,4.1c-1.7,1.7-3.3,2.9-5.8,3.7
			c-2.9,1.2-5.4,2.5-7.9,3.3c-5.4,2.1-12,3.3-17.8,1.7c-2.1-0.4-4.1-1.7-5.8-3.3c-0.8-0.8-1.2-0.8-2.5-0.8c-2.1,0.4-4.5-2.1-4.5-4.1
			c0-0.8,0.4-0.8,0.8-1.2c0.8,0,1.2,0,2.1,0c0.4,0,0.8,0,1.2,0c0-0.4,0-0.8,0-1.2c-1.7-7.9,3.3-16.1,9.9-19.8
			c1.7-1.2,4.1-2.1,6.2-2.5c2.5-0.4,5.8,0.4,6.6,2.9c0.8,2.1,0.8,4.5,0.4,6.2c-0.8,4.5-2.1,9.1-5.8,12c-2.1,1.7-4.1,2.9-6.2,4.1
			C320.9,144.4,320,144.8,319.2,145.3L319.2,145.3z"/>
		<path id="Fill-22" class="st1" d="M235.3,82.5c0,0.8,0.4,1.7,0.4,2.5c0,2.1-1.7,2.9-2.5,4.5c-1.2,1.7-2.5,3.7-3.3,5.8
			c-1.7,2.9-3.3,5.8-5,8.7c-2.1,4.1-4.5,8.7-6.2,13.2c-1.7,4.1-3.3,8.7-3.7,12.8c-0.4,2.1-1.2,4.1-1.7,6.2
			c-0.8,3.7-1.2,7.4-1.7,11.2c-0.4,1.7,0,5,1.7,6.2c1.7,1.2,6.2-1.7,7.9-2.5c4.1-2.5,7.9-5.8,11.6-8.7l0.4-0.4h0.4
			c0,0.8,0,1.7-0.4,2.1c0,0.4-0.4,0.8-0.4,0.8c-0.4,2.5-1.7,4.1-3.3,5.8c-0.4,0.8-1.2,1.2-2.1,1.7c-2.1,1.7-4.1,3.3-6.2,4.5
			c-2.9,1.7-6.6,3.7-9.9,1.7c-4.5-2.9-5-9.1-4.1-14c0.8-3.7,1.2-7,1.7-10.7c2.5-12,6.6-23.1,12-33.9c2.9-5.4,5.8-11.6,10.3-16.1
			C232.9,81.6,233.7,81.6,235.3,82.5"/>
		<path id="Fill-23" class="st1" d="M564.7,144.4c0.4-0.4-1.2,0.4-1.2,0.4c-0.8,0.4-0.4,0.4-1.2,0.4c-0.8,0-0.8-0.4-0.8-0.8
			c-0.4-1.7,0.4-2.9,0.8-4.1c0.8-2.1,2.5-4.5,2.9-6.6c0-0.4,0-0.4,0-0.8c0-0.8-0.4-0.8-0.8-0.8c-0.4,0-0.8,0.4-1.2,0.4
			c-3.7,2.5-7.4,4.5-10.7,7.4c-3.3,2.5-6.2,5.8-9.1,9.1c-0.4,0.4-0.8,1.2-1.2,2.1c-0.4,0.8-0.8,1.7-1.7,1.7
			c-1.2,0.4-2.5-0.4-2.5-2.1c-0.4-1.7,0-3.7,0.4-5.4c0.8-1.7,0.8-3.3,1.2-4.5c1.2-4.5,1.7-9.5,2.1-14c0.8-0.4,1.7-0.8,2.5-0.4
			c0.8,0.4,1.2,1.2,1.2,2.1c0,2.9,0,5.8-0.4,9.1c0,0.8,0,1.2-0.4,2.5c0.8-0.8,1.7-1.2,2.1-2.1c1.2-1.2,2.9-2.5,4.1-3.3
			c0.8-0.8,1.7-1.2,2.9-2.1c0.8-0.4,1.2-0.8,2.1-1.2c1.2-0.8,2.9-1.7,4.1-2.5s2.5-1.2,3.7-1.7c6.2-2.1,5.8,6.2,5,9.9
			C568,139.5,565.9,142,564.7,144.4C565.1,144,565.1,144.4,564.7,144.4"/>
		<path id="Fill-24" class="st1" d="M198.6,153.1c0.4,0.4,0.4,1.2,0.8,1.7c-1.2,1.7-2.1,3.7-4.1,4.5c-4.5,1.7-10.3,1.2-13.6-2.5
			c-2.1-2.5-2.1-5.8-0.8-9.1c0.8-1.7,1.7-3.3,2.9-5.4c0.4-1.2,1.2-2.1,1.7-3.3c0.4-0.8,1.7-1.7,2.5-1.2c0.8,0,1.7,1.2,1.2,2.5
			c-0.4,1.2-0.4,2.5-1.2,3.3c-1.2,2.1-2.5,4.5-3.3,6.6c-1.2,2.9-0.4,3.7,2.1,4.1c3.7,0.8,7,0.8,10.7-0.8
			C197.7,153.5,198.2,153.5,198.6,153.1"/>
		<path id="Fill-25" class="st1" d="M234.9,154.4c-1.2,0-2.1-1.7-1.2-3.7c0.8-2.5,1.7-5.4,2.1-7.9c0.4-0.8,0.4-2.1,0.4-2.9
			s0.4-1.2,1.2-1.7c0.8,0,0.8,0,1.2,0.8c0.8,2.1,0.8,4.1,0.4,6.2c-0.4,2.5-1.2,5.4-2.5,7.9C236.6,153.9,235.8,154.4,234.9,154.4"/>
		<path id="Fill-26" class="st1" d="M566.3,114.7c-1.2,1.2-2.9,2.1-3.7,1.2c-0.8-0.8-1.2-1.7-1.2-2.9c0-0.4,0-2.9,0.4-2.9
			c1.7-0.8,5-0.8,5.8,0.8C568,112.2,567.6,113.9,566.3,114.7"/>
		<path id="Fill-27" class="st1" d="M195.7,129.1c0,0-0.4,0-0.8,0.4c-1.2,1.2-1.2,1.2-2.5,0c-1.2-0.8-2.1-2.9-1.7-4.5
			c0-0.8,0.4-0.8,1.2-1.2c1.7-0.4,3.7,1.7,3.7,3.3C195.3,127.5,195.7,128.3,195.7,129.1"/>
		<path id="Fill-28" class="st1" d="M243.2,124.6c0,0.4,0,0.4,0,0.8c0,0.8,0,1.2-0.8,1.7c-0.8,0.4-1.7,0-2.1-0.4
			c-0.4-0.4-0.8-1.2-1.2-1.7c-0.4-0.8,0-2.1,0.4-2.5c0.8-0.4,1.7-0.4,2.5-0.4s1.2,1.2,1.2,2.1C243.2,124.2,243.2,124.2,243.2,124.6"
			/>
	</g>
</g>
<g>
	<path class="st2" d="M219.7,229.6c0,2.8-1.1,5.2-3.2,7.2c-2.1,2-4.7,3-7.7,3c-1.8,0-3.9-0.5-6.3-1.6c-0.7-0.3-1.1-0.4-1.5-0.4
		c-0.4,0-0.6,0.5-0.7,1.4c0,0.5-0.2,0.7-0.6,0.7c-0.3,0-0.5-0.2-0.5-0.6c0-0.3,0-0.5,0-0.6c0.3-2,0.4-3.8,0.4-5.6
		c0-0.3,0-1.2-0.1-2.8c0-0.2,0-0.5,0-0.8c0-0.5,0.2-0.7,0.6-0.7c0.3,0,0.6,0.4,0.7,1.2c0.9,5.9,3.6,8.8,8.3,8.8c2,0,3.5-0.6,4.6-1.7
		c1.1-1.1,1.6-2.7,1.6-4.8c0-1.8-0.5-3.4-1.6-4.7c-1.1-1.3-2.9-2.6-5.5-3.9c-3.1-1.5-5.3-3-6.5-4.5c-1.2-1.4-1.8-3.2-1.8-5.4
		c0-2.7,0.9-5,2.6-6.7c1.8-1.8,4-2.7,6.7-2.7c1.1,0,2.7,0.4,4.6,1.1c0.7,0.3,1.2,0.4,1.5,0.4c0.4,0,0.6-0.1,0.7-0.2
		c0.1-0.1,0.2-0.5,0.3-1c0.1-0.3,0.2-0.5,0.5-0.5c0.3,0,0.5,0.2,0.5,0.6c0,0.3,0,0.5,0,0.6c-0.1,0.8-0.1,1.7-0.1,2.8
		c0,1.6,0.1,2.8,0.2,3.7l0,0.8c0,0.4-0.1,0.5-0.4,0.5c-0.4,0-0.6-0.4-0.7-1.1c-0.4-1.9-1.2-3.5-2.6-4.8c-1.3-1.3-2.8-1.9-4.5-1.9
		c-1.6,0-2.9,0.5-3.9,1.6c-1,1-1.4,2.5-1.4,4.3c0,2.1,0.7,3.8,2.1,5.1c0.8,0.7,2.5,1.7,5.1,3c3.1,1.5,5.3,3.1,6.6,4.7
		C219,225.7,219.7,227.5,219.7,229.6z"/>
	<path class="st2" d="M235.3,238.7c0,0.3-0.2,0.4-0.6,0.4h-0.5c-0.2-0.1-2.4-0.1-6.7-0.1c-0.8,0-1.6,0-2.5,0.1c-0.4,0-1.1,0-2,0
		c-0.4,0-0.6-0.1-0.6-0.4c0-0.3,0.4-0.4,1.3-0.4c1.3,0,2.1-0.2,2.3-0.5c0.2-0.3,0.3-1.2,0.3-2.8V209c0-1.6-0.1-2.5-0.2-2.7
		c-0.2-0.3-1.1-0.5-2.7-0.6c-0.6,0-0.9-0.1-0.9-0.3c0-0.3,0.2-0.4,0.6-0.4h6.7c0.5,0,1.5,0,2.9,0l1.9,0c0.5,0,0.8,0.1,0.8,0.4
		c0,0.2-0.7,0.4-2.2,0.5c-0.8,0-1.3,0.2-1.5,0.4c-0.2,0.3-0.3,1-0.3,2.1v26.2c0,1.9,0.1,2.9,0.2,3c0.4,0.4,1.4,0.6,3.2,0.6
		C235.1,238.3,235.3,238.4,235.3,238.7z"/>
	<path class="st2" d="M264.6,213.8c0,0.4-0.2,0.6-0.6,0.6c-0.4,0-0.7-0.4-0.8-1.3c-0.1-0.6-0.1-1.2-0.2-1.8c-0.2-1.2-0.6-2.2-1.1-3
		c-0.7-1.1-1.8-1.8-3.4-2.1c-1-0.2-1.8-0.3-2.5-0.2c-1.5,0-2.5,0.1-2.8,0.1v29.7c0,1.2,0.3,1.9,0.9,2.2c0.3,0.2,1.2,0.3,2.8,0.3
		c0.4,0,0.6,0.2,0.6,0.4c0,0.3-0.3,0.4-0.8,0.4c-0.3,0-0.5,0-0.7,0c-2-0.1-3.4-0.1-4.2-0.1c-1.1,0-2.1,0-3,0.1c-1,0-2.2,0.1-3.6,0.1
		c-0.8,0-1.1-0.1-1.1-0.4c0-0.3,0.7-0.5,2.1-0.5c1,0,1.7-0.2,2-0.6c0.2-0.3,0.2-0.9,0.2-2v-29.5c-3.2,0-5.3,0.2-6,0.5
		c-2.1,0.8-3.3,2.8-3.6,6c-0.1,1-0.3,1.5-0.7,1.5c-0.4,0-0.6-0.3-0.6-1c0-0.4,0-0.7,0-1.1l0.1-1.1c0.1-1.5,0.2-3.5,0.4-5.9h2.2
		l10,0.1c1.2,0,3,0,5.5,0l8.2-0.1c0.1,1.8,0.3,4.6,0.6,8.2c0,0.1,0,0.2,0,0.4C264.6,213.7,264.6,213.8,264.6,213.8z"/>
	<path class="st2" d="M292.9,231.2c0,0.1,0,0.9-0.1,2.4c-0.1,1.5-0.1,2.9-0.1,4.2v1.6c-3.2-0.2-9.6-0.3-19.1-0.3c-1.1,0-2.3,0-3.4,0
		c-1.1,0-1.9,0-2.3,0h-0.5c-0.6,0-0.9-0.1-0.9-0.4c0-0.2,0.1-0.3,0.3-0.3c0.1,0,0.7,0,1.9-0.1c0.9-0.1,1.4-0.2,1.5-0.5
		c0.2-0.3,0.3-1.1,0.3-2.3v-27.7c0-1-0.1-1.5-0.4-1.7s-1.2-0.3-2.7-0.3c-0.5,0-0.8-0.1-0.8-0.4s0.4-0.4,1.1-0.4h8.4
		c0.3,0,2.1,0,5.6,0c3.4,0,5.7,0,6.9,0c1,0,1.9-0.1,2.7-0.2c0.1,1.4,0.2,3.4,0.4,5.8l0.2,2.1c0,0.2,0,0.4,0,0.6
		c0,0.3-0.1,0.5-0.4,0.5c-0.4,0-0.6-0.4-0.8-1.2c-0.6-3-1.6-4.8-3-5.6c-1-0.6-3.8-0.9-8.3-0.9h-4v14.4h1.2c3.7,0,5.9-0.3,6.7-0.8
		c0.8-0.6,1.4-2.2,1.6-4.9c0.1-0.7,0.2-1,0.5-1c0.4,0,0.5,0.3,0.5,0.9s0,1.5-0.1,2.6c-0.1,1.1-0.1,2-0.1,2.6c0,3.5,0.1,5.9,0.2,7.2
		c0,0.3,0,0.6,0,0.8c0,0.4-0.2,0.6-0.5,0.6c-0.2,0-0.4-0.1-0.5-0.4s-0.2-1.2-0.4-2.7c-0.3-1.9-1.1-3.1-2.4-3.6
		c-0.6-0.2-2.1-0.3-4.6-0.3h-2.2v16.5c7.2,0,11.4-0.1,12.7-0.4c2.2-0.5,3.4-2.6,3.7-6.2c0.1-0.8,0.3-1.2,0.6-1.2
		C292.8,230.2,292.9,230.5,292.9,231.2z"/>
	<path class="st2" d="M336.4,222.3c0,4.9-1.5,9-4.4,12.4c-2.9,3.4-6.5,5.1-10.8,5.1c-4.5,0-8.3-1.7-11.4-5.1
		c-3.1-3.4-4.6-7.6-4.6-12.6c0-5.1,1.5-9.3,4.4-12.6c3-3.3,6.8-4.9,11.4-4.9c4.4,0,8,1.7,11,5.1S336.4,217.3,336.4,222.3z
		 M330.9,222.5c0-6-1.2-10.7-3.7-14c-1.5-2.1-3.7-3.2-6.4-3.2c-2.6,0-4.7,0.8-6.1,2.4c-2.7,3-4,7.8-4,14.4c0,5.3,0.9,9.4,2.8,12.3
		c1.8,2.9,4.4,4.4,7.8,4.4c3.1,0,5.5-1.4,7-4.1C330,231.7,330.9,227.6,330.9,222.5z"/>
	<path class="st2" d="M365.1,213.2c0,0.5-0.2,0.7-0.5,0.7c-0.3,0-0.6-0.4-0.7-1.2c-0.4-2.4-1.2-4.1-2.4-5.2c-0.8-0.7-2-1.1-3.6-1.3
		c-0.6-0.1-1.9-0.1-3.9-0.1c-1.5,0-3.3,0.1-5.4,0.1v14.4c4.2,0,6.8-0.2,7.8-0.8c1-0.6,1.6-2.2,1.8-4.8c0.1-0.8,0.3-1.1,0.6-1.1
		c0.3,0,0.5,0.2,0.5,0.7c0,0.3,0,0.5,0,0.7c-0.1,2.3-0.1,4.4-0.1,6.3c0,2.5,0.1,4.5,0.2,5.9c0,0.1,0,0.3,0,0.6
		c0,0.4-0.2,0.6-0.5,0.6c-0.3,0-0.4-0.1-0.5-0.3s-0.2-0.9-0.3-2.3c-0.3-2-0.8-3.2-1.5-3.7c-0.8-0.5-2.3-0.7-4.6-0.7
		c-1.2,0-2.3,0-3.2,0.1v5v9.6c0,1,0.4,1.6,1.1,1.8c0.4,0.1,1.1,0.2,2.4,0.1c0.5,0,0.8,0.1,0.8,0.4c0,0.3-0.3,0.4-1,0.4h-0.5
		c-0.5,0-1.1,0-1.9,0c-0.8,0-1.3,0-1.5,0h-7.3c-0.6,0-0.9-0.1-0.9-0.4c0-0.3,0.6-0.4,1.7-0.5c1.1-0.1,1.8-0.2,2-0.5s0.3-1,0.3-2.3
		v-28.3c0-0.6-0.2-1-0.5-1.1c-0.3-0.1-1.2-0.2-2.6-0.3c-0.5,0-0.8-0.2-0.8-0.5c0-0.3,0.3-0.4,0.9-0.4h0.8c-0.1,0,1.5,0,4.7,0
		c3.2,0,5.9,0,7.9,0c5.5,0,8.9-0.1,10.2-0.3c0,0.4,0.1,1.7,0.3,3.7c0.1,1.4,0.2,2.6,0.4,3.7C365.1,212.5,365.1,212.9,365.1,213.2z"
		/>
	<path class="st2" d="M391.8,213.2c0,0.5-0.2,0.7-0.5,0.7c-0.3,0-0.6-0.4-0.7-1.2c-0.4-2.4-1.2-4.1-2.4-5.2c-0.8-0.7-2-1.1-3.6-1.3
		c-0.6-0.1-1.9-0.1-3.9-0.1c-1.5,0-3.3,0.1-5.4,0.1v14.4c4.2,0,6.8-0.2,7.8-0.8c1-0.6,1.6-2.2,1.8-4.8c0.1-0.8,0.3-1.1,0.6-1.1
		s0.5,0.2,0.5,0.7c0,0.3,0,0.5,0,0.7c-0.1,2.3-0.1,4.4-0.1,6.3c0,2.5,0.1,4.5,0.2,5.9c0,0.1,0,0.3,0,0.6c0,0.4-0.2,0.6-0.5,0.6
		c-0.3,0-0.4-0.1-0.5-0.3c-0.1-0.2-0.2-0.9-0.3-2.3c-0.3-2-0.8-3.2-1.5-3.7c-0.8-0.5-2.3-0.7-4.6-0.7c-1.2,0-2.3,0-3.2,0.1v5v9.6
		c0,1,0.4,1.6,1.1,1.8c0.4,0.1,1.1,0.2,2.4,0.1c0.5,0,0.8,0.1,0.8,0.4c0,0.3-0.3,0.4-1,0.4H378c-0.5,0-1.1,0-1.9,0
		c-0.8,0-1.3,0-1.5,0h-7.3c-0.6,0-0.9-0.1-0.9-0.4c0-0.3,0.6-0.4,1.7-0.5c1.1-0.1,1.8-0.2,2-0.5c0.2-0.2,0.3-1,0.3-2.3v-28.3
		c0-0.6-0.2-1-0.5-1.1c-0.3-0.1-1.2-0.2-2.6-0.3c-0.5,0-0.8-0.2-0.8-0.5c0-0.3,0.3-0.4,0.9-0.4h0.8c-0.1,0,1.5,0,4.7,0
		c3.2,0,5.9,0,7.9,0c5.5,0,8.9-0.1,10.2-0.3c0,0.4,0.1,1.7,0.3,3.7c0.1,1.4,0.2,2.6,0.4,3.7C391.7,212.5,391.8,212.9,391.8,213.2z"
		/>
	<path class="st2" d="M405.9,238.7c0,0.3-0.2,0.4-0.6,0.4h-0.5c-0.2-0.1-2.4-0.1-6.7-0.1c-0.8,0-1.6,0-2.5,0.1c-0.4,0-1.1,0-2,0
		c-0.4,0-0.6-0.1-0.6-0.4c0-0.3,0.4-0.4,1.3-0.4c1.3,0,2.1-0.2,2.3-0.5c0.2-0.3,0.3-1.2,0.3-2.8V209c0-1.6-0.1-2.5-0.2-2.7
		c-0.2-0.3-1.1-0.5-2.7-0.6c-0.6,0-0.9-0.1-0.9-0.3c0-0.3,0.2-0.4,0.6-0.4h6.7c0.5,0,1.5,0,2.9,0l1.9,0c0.5,0,0.8,0.1,0.8,0.4
		c0,0.2-0.7,0.4-2.2,0.5c-0.8,0-1.3,0.2-1.5,0.4c-0.2,0.3-0.3,1-0.3,2.1v26.2c0,1.9,0.1,2.9,0.2,3c0.4,0.4,1.4,0.6,3.2,0.6
		C405.7,238.3,405.9,238.4,405.9,238.7z"/>
	<path class="st2" d="M437.1,228.2c0-0.1,0,0.4-0.1,1.3c-0.1,1.9-0.2,3.7-0.2,5.5c0,0.2,0,0.6,0.1,1.2c0.1,0.6,0.1,1.3,0.1,2.2v0.4
		c0,0.4-0.1,0.6-0.4,0.6c-0.3,0-0.5-0.2-0.7-0.7c-0.5-1.1-0.9-1.8-1.4-2.1c-2.4,2.1-5.2,3.1-8.5,3.1c-4.8,0-8.8-1.7-12-5
		s-4.7-7.6-4.7-12.7c0-5.1,1.4-9.3,4.3-12.6c2.9-3.3,6.6-4.9,11.2-4.9c1.7,0,3,0.1,4,0.4c1,0.3,2.2,0.8,3.7,1.7
		c0.7,0.4,1.3,0.6,1.6,0.6c0.3,0,0.6-0.3,0.8-0.8c0.4-0.9,0.8-1.4,1-1.4c0.3,0,0.4,0.1,0.4,0.4c0,0.1,0,0.3-0.1,0.6
		c-0.4,1.6-0.5,4.5-0.5,8.8c0,0.6,0,1-0.1,1.1c-0.1,0.1-0.2,0.1-0.4,0.1c-0.3,0-0.5-0.3-0.6-0.9c-0.4-2.6-1-4.6-1.8-5.8
		c-1.6-2.6-4.1-3.9-7.6-3.9c-2.7,0-4.7,0.9-6.3,2.7c-2.8,3.2-4.2,7.8-4.2,14c0,5.5,1.1,9.7,3.4,12.7c2,2.6,4.7,3.9,8,3.9
		c1.7,0,3.3-0.4,4.7-1.3c1.4-0.8,2.5-2,3.2-3.4c0.9-1.7,1.5-3.5,1.8-5.5c0.1-0.8,0.3-1.2,0.6-1.2C437,227.5,437.1,227.7,437.1,228.2
		z"/>
	<path class="st2" d="M453.4,238.7c0,0.3-0.2,0.4-0.6,0.4h-0.5c-0.2-0.1-2.4-0.1-6.7-0.1c-0.8,0-1.6,0-2.5,0.1c-0.4,0-1.1,0-2,0
		c-0.4,0-0.6-0.1-0.6-0.4c0-0.3,0.4-0.4,1.3-0.4c1.3,0,2.1-0.2,2.3-0.5c0.2-0.3,0.3-1.2,0.3-2.8V209c0-1.6-0.1-2.5-0.2-2.7
		c-0.2-0.3-1.1-0.5-2.7-0.6c-0.6,0-0.9-0.1-0.9-0.3c0-0.3,0.2-0.4,0.6-0.4h6.7c0.5,0,1.5,0,2.9,0l1.9,0c0.5,0,0.8,0.1,0.8,0.4
		c0,0.2-0.7,0.4-2.2,0.5c-0.8,0-1.3,0.2-1.5,0.4c-0.2,0.3-0.3,1-0.3,2.1v26.2c0,1.9,0.1,2.9,0.2,3c0.4,0.4,1.4,0.6,3.2,0.6
		C453.2,238.3,453.4,238.4,453.4,238.7z"/>
	<path class="st2" d="M482.3,231.2c0,0.1,0,0.9-0.1,2.4c-0.1,1.5-0.1,2.9-0.1,4.2v1.6c-3.2-0.2-9.6-0.3-19.1-0.3c-1.1,0-2.3,0-3.4,0
		s-1.9,0-2.3,0h-0.5c-0.6,0-0.9-0.1-0.9-0.4c0-0.2,0.1-0.3,0.3-0.3c0.1,0,0.7,0,1.9-0.1c0.9-0.1,1.4-0.2,1.5-0.5
		c0.2-0.3,0.3-1.1,0.3-2.3v-27.7c0-1-0.1-1.5-0.4-1.7c-0.3-0.2-1.2-0.3-2.7-0.3c-0.5,0-0.8-0.1-0.8-0.4s0.4-0.4,1.1-0.4h8.4
		c0.3,0,2.1,0,5.6,0c3.4,0,5.7,0,6.9,0c1,0,1.9-0.1,2.7-0.2c0.1,1.4,0.2,3.4,0.4,5.8l0.2,2.1c0,0.2,0,0.4,0,0.6
		c0,0.3-0.1,0.5-0.4,0.5c-0.4,0-0.6-0.4-0.8-1.2c-0.6-3-1.6-4.8-3-5.6c-1-0.6-3.8-0.9-8.3-0.9h-4v14.4h1.2c3.7,0,5.9-0.3,6.7-0.8
		c0.8-0.6,1.4-2.2,1.6-4.9c0.1-0.7,0.2-1,0.5-1c0.4,0,0.5,0.3,0.5,0.9s0,1.5-0.1,2.6c-0.1,1.1-0.1,2-0.1,2.6c0,3.5,0.1,5.9,0.2,7.2
		c0,0.3,0,0.6,0,0.8c0,0.4-0.2,0.6-0.5,0.6c-0.2,0-0.4-0.1-0.5-0.4s-0.2-1.2-0.4-2.7c-0.3-1.9-1.1-3.1-2.4-3.6
		c-0.6-0.2-2.1-0.3-4.6-0.3h-2.2v16.5c7.2,0,11.4-0.1,12.7-0.4c2.2-0.5,3.4-2.6,3.7-6.2c0.1-0.8,0.3-1.2,0.6-1.2
		C482.1,230.2,482.3,230.5,482.3,231.2z"/>
	<path class="st2" d="M510.5,235.3c0,0.9,0,2.3-0.1,4.2h-0.5c-0.2,0-0.7,0-1.4-0.1c-0.8-0.1-1.6-0.1-2.5-0.1l-20.4-0.1
		c-0.6,0-0.8-0.1-0.8-0.4c0-0.2,0.4-0.4,1.3-0.4c1.2-0.1,2-0.2,2.2-0.4c0.2-0.2,0.4-0.8,0.4-1.8v-27.6c0-1.2-0.1-1.9-0.4-2.1
		c-0.2-0.2-1.1-0.3-2.6-0.3c-0.6,0-0.9-0.2-0.9-0.5c0-0.3,0.2-0.4,0.6-0.4h0.4c1.1,0.1,3.2,0.1,6.4,0.1c0.3,0,0.9,0,1.7-0.1
		c0.9,0,1.6-0.1,2.1-0.1h0.5c0.6,0,0.9,0.2,0.9,0.5c0,0.2-0.1,0.3-0.3,0.4c-0.2,0-0.7,0.1-1.7,0.1c-1,0-1.5,0.2-1.7,0.5
		c-0.2,0.3-0.3,1.1-0.3,2.6v29c0.9,0,2.1,0,3.7,0c3.8,0,6.5-0.2,8.1-0.6c1.6-0.4,2.6-1.1,3.2-2.2c0.6-1.1,0.9-2.5,1-4.4
		c0-0.4,0.2-0.6,0.6-0.6c0.4,0,0.6,0.2,0.6,0.7v1.2c0,0.1,0,0.2,0,0.4c0,0.2,0,0.5,0,0.7V235.3z"/>
</g>
</svg>
