<svg width="628" height="257" viewBox="0 0 628 257" fill="none" xmlns="http://www.w3.org/2000/svg">
<path fill-rule="evenodd" clip-rule="evenodd" d="M539.478 153.767C500.691 143.808 464.601 150.057 459.068 166.893C452.22 187.703 479.075 211.19 517.862 221.149C556.65 231.107 592.497 220.501 595.679 203.647C598.861 186.793 578.265 163.725 539.478 153.767ZM585.303 201.022C582.658 214.323 557.238 218.419 523.033 211.103C490.696 204.19 467.005 186.093 469.633 172.774C472.279 159.473 500.449 155.045 532.578 162.903C564.708 170.761 587.932 187.703 585.286 201.004L585.303 201.022Z" fill="#091369"/>
<path d="M16.72 201.86V64.36C16.72 57.76 18.26 56 25.08 56H58.96C93.06 56 111.32 70.08 111.32 101.54C111.32 124.2 101.64 138.06 83.38 143.78L115.28 202.96C117.7 207.36 115.94 210 111.32 210H102.08C95.48 210 92.84 208.68 89.54 202.96L59.84 146.86H39.82V201.86C39.82 208.46 38.28 210 31.46 210H25.08C18.26 210 16.72 208.46 16.72 201.86ZM58.96 78H39.82V124.86H58.96C78.32 124.86 86.9 118.26 86.9 101.76C86.9 85.48 78.32 78 58.96 78ZM159.053 102.42C188.093 102.42 203.933 122.22 203.933 155.88V158.74C203.933 165.34 202.173 167.1 195.573 167.1H136.613C138.813 184.26 146.953 193.06 162.353 193.06C172.913 193.06 180.613 188.66 186.113 184.48C191.613 181.4 193.153 181.4 196.013 184.48L200.633 189.1C203.933 192.62 203.713 195.04 199.973 198.12C192.493 205.16 181.493 212.2 162.353 212.2C134.413 212.2 114.173 195.26 114.173 157.42C114.173 123.54 131.553 102.42 159.053 102.42ZM159.053 121.56C146.073 121.56 138.373 131.02 136.613 148.18H181.933C180.393 131.24 172.693 121.56 159.053 121.56ZM156.633 89C151.133 89 150.253 87.24 153.333 81.96L161.473 66.12C165.873 57.98 168.513 57.1 174.893 57.1H187.873C194.473 57.1 195.793 59.3 190.953 64.36L175.113 82.84C169.613 88.56 166.093 89 161.913 89H156.633ZM225.868 112.54L248.088 189.1L270.528 112.54C272.288 106.38 274.488 104.84 281.088 104.84H288.128C294.728 104.84 295.828 106.38 293.628 112.54L264.808 202.3C262.388 208.46 260.188 210 253.588 210H242.808C235.988 210 233.788 208.46 231.588 202.3L202.328 112.54C200.128 106.38 201.228 104.84 207.828 104.84H215.308C221.908 104.84 223.888 106.38 225.868 112.54ZM336.54 102.42C365.58 102.42 381.42 122.22 381.42 155.88V158.74C381.42 165.34 379.66 167.1 373.06 167.1H314.1C316.3 184.26 324.44 193.06 339.84 193.06C350.4 193.06 358.1 188.66 363.6 184.48C369.1 181.4 370.64 181.4 373.5 184.48L378.12 189.1C381.42 192.62 381.2 195.04 377.46 198.12C369.98 205.16 358.98 212.2 339.84 212.2C311.9 212.2 291.66 195.26 291.66 157.42C291.66 123.54 309.04 102.42 336.54 102.42ZM336.54 121.56C323.56 121.56 315.86 131.02 314.1 148.18H359.42C357.88 131.24 350.18 121.56 336.54 121.56ZM341.6 89H336.32C332.14 89 328.62 88.56 323.12 82.84L307.28 64.36C302.44 59.3 303.76 57.1 310.36 57.1H323.34C329.94 57.1 332.58 57.98 336.76 66.12L345.12 81.96C347.98 87.24 347.1 89 341.6 89ZM390.088 201.86V53.36C390.088 46.76 391.628 45 398.448 45H403.508C410.108 45 411.868 46.76 411.868 53.36V201.86C411.868 208.46 410.108 210 403.508 210H398.448C391.628 210 390.088 208.46 390.088 201.86Z" fill="url(#paint0_linear_163_46)"/>
<path fill-rule="evenodd" clip-rule="evenodd" d="M436.5 188C442.853 188 448 192.924 448 199C448 205.076 442.853 210 436.5 210C430.147 210 425 205.076 425 199C425 192.924 430.147 188 436.5 188Z" fill="#091369"/>
<path fill-rule="evenodd" clip-rule="evenodd" d="M618.079 13.3447C596.909 -4.498 548.266 9.93773 504.67 59.1808C461.074 108.424 442.245 166.325 461.581 187.61C485.492 213.917 538.921 192.773 582.517 143.53C626.113 94.2866 639.265 31.1874 618.079 13.3623V13.3447ZM577.033 131.886C542.624 174.017 489.736 199.71 473.108 185.449C456.481 171.189 473.353 114.008 508.041 72.1764C549.419 22.2836 593.608 6.98736 610.219 21.2475C626.847 35.5076 613.433 87.3146 577.033 131.886Z" fill="#091369"/>
<defs>
<linearGradient id="paint0_linear_163_46" x1="696.789" y1="138.391" x2="45.475" y2="138.391" gradientUnits="userSpaceOnUse">
<stop offset="0.402421" stop-color="#091369"/>
<stop offset="0.976225" stop-color="#FA1565"/>
</linearGradient>
</defs>
</svg>
