<?xml version="1.0" encoding="UTF-8"?>
<svg id="Calque_1" xmlns="http://www.w3.org/2000/svg" version="1.1" viewBox="0 0 220 90">
  <!-- Generator: Adobe Illustrator 29.3.1, SVG Export Plug-In . SVG Version: 2.1.0 Build 151)  -->
  <defs>
    <style>
      .st0 {
        fill: #091369;
        fill-rule: evenodd;
      }
    </style>
  </defs>
  <path class="st0" d="M69.1,2.2c2.7,0,5.7,1.3,6.7,3.1v2c-2.3,2.6-4.6,5.3-6.9,7.9h-1.5c-1.5-.7-2.7-1.5-3.3-3.1-.6-2.6,3.5-8.2,5.1-10Z"/>
  <path class="st0" d="M152.6,2.7c3.1,1.2,6.2,6.5,6.7,10.2l-3.1,3.1h-1.8c-2.5-2.6-5-5.3-7.4-7.9,0-.7.2-1.4.3-2,1-1.8,3.6-2.2,5.4-3.3Z"/>
  <path class="st0" d="M70.1,36.7v3.8c3.7,0,8.2-.3,10.5,1l-.5,10.2c-2.3,1.1-6.5,1.2-9.7,1.3v.3c.2.9.3,1.9.5,2.8,5.2,0,11.1,0,15.4,1,1.3,1.9,2.4,14,0,15.6-2.4,1.7-30.9.8-33.1,0-2.6-5.7-.8-31.2-.8-39.7,0-3.4-1-10.5.8-12.6,1.1-1.5,32.1-1.8,33.6.3,1.5,2.3,1,13.4-.8,14.6-2.9,2-11.6,1.3-15.9,1.3Z"/>
  <path class="st0" d="M158.8,36.7v3.8c3.7,0,8.2-.3,10.5,1,.5,2.7,0,7.5-.5,10.2-2.2,1.1-6.3,1.2-9.5,1.3,0,1,.2,2.1.3,3.1,5.7-.1,13.1-.3,16.4,2,0,4.5-.2,9.1-.3,13.6-2.1,2.6-32.8,2.1-34.1.3-2-3.7-.5-32.6-.5-39.5,0-3.4-.9-10.1.8-12,.8-1.1,31.1-2,33.1-.3.3.3.7.5,1,.8.1,3.9,1.1,12.7-1.3,14.3-2.9,2-11.6,1.3-15.9,1.3Z"/>
  <path class="st0" d="M198,56.2c3.1-.1,8.6-.3,10.2,1.3.3.3.7.5,1,.8,0,3.4,1.2,11.9-.5,14.1-1.1,1.4-27.3,1.4-28.4.5l-1-1c0-12.5-.2-24.9-.3-37.4,0-5-.6-11.2,1.3-14.3,4-1,11.2-.8,15.6,0l1,1.5c.3,11.5.7,23.1,1,34.6Z"/>
  <path class="st0" d="M92.2,20.1c4.9,0,12.6-.8,15.9,1,2,10.6,4.1,21.2,6.1,31.8h.3c1.5-8.1,2.9-16.2,4.4-24.3.5-2.6.2-6.7,2-7.9,2.6-1.8,13.5-.8,16.4,0,1.3,3.7-.6,9.4-1.8,13.6-2.3,9.1-4.6,18.3-6.9,27.4-1.1,4-1.4,8.6-3.3,11.8-2.3.6-19.8,1.5-21.8.3-2.5-1.6-2.7-8.9-3.6-12-1.9-6.9-10.5-35.4-9-40.7.4-.3.9-.5,1.3-.8Z"/>
  <path class="st0" d="M43.7,23.9c-7.2-5.5-24.1-4.1-36.6-3.8-3.6,3.6-1.8,32-1.8,40.2s-.8,9.7.8,12c1.6,2.3,13.6,1.5,16.9.5,1.4-2.4.9-8.3.5-12,.6,0,1.2.2,1.8.3,1.2,4.3,3.6,8.9,5.9,12.3,4.2,1.1,12,.9,16.7.3,2.7-4.8-5.1-12-5.9-16.9,9-4.6,10.3-26.4,1.8-32.8ZM32.2,42.1c-1.2,3.1-4.5,3.5-9,3.3,0-2.6-.2-5.3-.3-7.9,2.4,0,5.8-.3,7.4.5,1.2.5,1.5,1.2,2,2.3,0,.6-.2,1.2-.3,1.8Z"/>
  <path class="st0" d="M257.9,154.3"/>
</svg>