<svg width="396" height="168" viewBox="0 0 396 168" fill="none" xmlns="http://www.w3.org/2000/svg">
<path d="M0.720001 156.86V19.36C0.720001 12.76 2.26 11 9.08 11H42.96C77.06 11 95.32 25.08 95.32 56.54C95.32 79.2 85.64 93.06 67.38 98.78L99.28 157.96C101.7 162.36 99.94 165 95.32 165H86.08C79.48 165 76.84 163.68 73.54 157.96L43.84 101.86H23.82V156.86C23.82 163.46 22.28 165 15.46 165H9.08C2.26 165 0.720001 163.46 0.720001 156.86ZM42.96 33H23.82V79.86H42.96C62.32 79.86 70.9 73.26 70.9 56.76C70.9 40.48 62.32 33 42.96 33ZM143.053 57.42C172.093 57.42 187.933 77.22 187.933 110.88V113.74C187.933 120.34 186.173 122.1 179.573 122.1H120.613C122.813 139.26 130.953 148.06 146.353 148.06C156.913 148.06 164.613 143.66 170.113 139.48C175.613 136.4 177.153 136.4 180.013 139.48L184.633 144.1C187.933 147.62 187.713 150.04 183.973 153.12C176.493 160.16 165.493 167.2 146.353 167.2C118.413 167.2 98.1731 150.26 98.1731 112.42C98.1731 78.54 115.553 57.42 143.053 57.42ZM143.053 76.56C130.073 76.56 122.373 86.02 120.613 103.18H165.933C164.393 86.24 156.693 76.56 143.053 76.56ZM140.633 44C135.133 44 134.253 42.24 137.333 36.96L145.473 21.12C149.873 12.98 152.513 12.1 158.893 12.1H171.873C178.473 12.1 179.793 14.3 174.953 19.36L159.113 37.84C153.613 43.56 150.093 44 145.913 44H140.633ZM209.868 67.54L232.088 144.1L254.528 67.54C256.288 61.38 258.488 59.84 265.088 59.84H272.128C278.728 59.84 279.828 61.38 277.628 67.54L248.808 157.3C246.388 163.46 244.188 165 237.588 165H226.808C219.988 165 217.788 163.46 215.588 157.3L186.328 67.54C184.128 61.38 185.228 59.84 191.828 59.84H199.308C205.908 59.84 207.888 61.38 209.868 67.54ZM320.54 57.42C349.58 57.42 365.42 77.22 365.42 110.88V113.74C365.42 120.34 363.66 122.1 357.06 122.1H298.1C300.3 139.26 308.44 148.06 323.84 148.06C334.4 148.06 342.1 143.66 347.6 139.48C353.1 136.4 354.64 136.4 357.5 139.48L362.12 144.1C365.42 147.62 365.2 150.04 361.46 153.12C353.98 160.16 342.98 167.2 323.84 167.2C295.9 167.2 275.66 150.26 275.66 112.42C275.66 78.54 293.04 57.42 320.54 57.42ZM320.54 76.56C307.56 76.56 299.86 86.02 298.1 103.18H343.42C341.88 86.24 334.18 76.56 320.54 76.56ZM325.6 44H320.32C316.14 44 312.62 43.56 307.12 37.84L291.28 19.36C286.44 14.3 287.76 12.1 294.36 12.1H307.34C313.94 12.1 316.58 12.98 320.76 21.12L329.12 36.96C331.98 42.24 331.1 44 325.6 44ZM374.088 156.86V8.36C374.088 1.75999 375.628 -1.3113e-05 382.448 -1.3113e-05H387.508C394.108 -1.3113e-05 395.868 1.75999 395.868 8.36V156.86C395.868 163.46 394.108 165 387.508 165H382.448C375.628 165 374.088 163.46 374.088 156.86Z" fill="#091369"/>
</svg>
